<?xml version="1.0" encoding="UTF-8"?>
<svg version="1.1" xmlns="http://www.w3.org/2000/svg" width="492" height="507">
<path d="M0 0 C1.98 0 3.96 0 6 0 C6 0.66 6 1.32 6 2 C6.99 2.33 7.98 2.66 9 3 C10.1875 5.5625 10.1875 5.5625 11 8 C11.66 8 12.32 8 13 8 C25.16353885 24.33389503 27.97112414 44.75378941 25.25 64.5 C21.89818472 83.79051732 14.70409565 100.19089283 2.1875 115.1875 C1.70716309 115.76491943 1.22682617 116.34233887 0.73193359 116.93725586 C-0.46486163 118.33337544 -1.72744196 119.67257213 -3 121 C-3.66 121 -4.32 121 -5 121 C-5 121.66 -5 122.32 -5 123 C-5.66 123 -6.32 123 -7 123 C-7 123.66 -7 124.32 -7 125 C-8.79583395 126.59903023 -10.58477267 128.0548061 -12.5 129.5 C-13.08096436 129.94069824 -13.66192871 130.38139648 -14.26049805 130.83544922 C-38.77793285 149.11402904 -64.13385157 158.33402583 -94 164 C-93.43079834 164.65246704 -93.43079834 164.65246704 -92.85009766 165.31811523 C-89.54596759 169.13434929 -86.39432001 173.01362388 -83.375 177.0625 C-82.64023437 178.04347656 -81.90546875 179.02445313 -81.1484375 180.03515625 C-74.85535007 188.71961691 -74.85535007 188.71961691 -73.5 192.75 C-72.3895157 195.90039567 -71.23110007 199.01927028 -70 202.125 C-69.690625 202.91132813 -69.38125 203.69765625 -69.0625 204.5078125 C-68.711875 205.33023438 -68.36125 206.15265625 -68 207 C-67.58878906 207.98097656 -67.17757813 208.96195313 -66.75390625 209.97265625 C-64.69045664 213.53428976 -62.12678311 215.81072702 -58.9375 218.3125 C-58.12442383 218.97475586 -58.12442383 218.97475586 -57.29492188 219.65039062 C-55.26267964 221.29075426 -53.34288678 222.82855661 -51 224 C-51 224.66 -51 225.32 -51 226 C-49.93652344 226.35578125 -49.93652344 226.35578125 -48.8515625 226.71875 C-45.51808716 228.2165307 -43.15860868 230.13815021 -40.375 232.5 C-37.62748625 234.81844996 -34.99254012 237.00497325 -32 239 C-32 239.66 -32 240.32 -32 241 C-31.236875 241.28875 -30.47375 241.5775 -29.6875 241.875 C-27 243 -27 243 -24 245 C-24 245.66 -24 246.32 -24 247 C-22.35 247.66 -20.7 248.32 -19 249 C-19 249.66 -19 250.32 -19 251 C-18.26007813 251.25523437 -17.52015625 251.51046875 -16.7578125 251.7734375 C-13.85476777 253.06459337 -12.16220798 254.44215132 -9.875 256.625 C-6.68843458 259.54994264 -3.4670877 262.18759653 0.0625 264.6875 C5.01869207 268.22864292 9.81115006 271.94095244 14.5625 275.75 C15.26576416 276.30518311 15.96902832 276.86036621 16.69360352 277.43237305 C17.35287842 277.96515869 18.01215332 278.49794434 18.69140625 279.046875 C19.57614624 279.75602051 19.57614624 279.75602051 20.47875977 280.47949219 C23.0418484 283.04134679 23.94833203 285.22282762 24.1875 288.8203125 C23.3686732 303.25213489 18.62150698 316.72991429 11 329 C10.34 329 9.68 329 9 329 C8.81179688 329.67804688 8.62359375 330.35609375 8.4296875 331.0546875 C6.41475073 335.20567746 3.41571476 337.94151831 0.125 341.125 C-0.50019531 341.74503906 -1.12539063 342.36507813 -1.76953125 343.00390625 C-9.9031922 351 -9.9031922 351 -13 351 C-13 351.66 -13 352.32 -13 353 C-15.26429881 355.03786893 -17.05395478 355.99535193 -20.13671875 356.01049805 C-26.39273013 355.36890429 -32.13721371 354.02221204 -38.125 352.125 C-38.96675781 351.86847656 -39.80851562 351.61195313 -40.67578125 351.34765625 C-44.61019074 350.13378417 -48.47503434 348.83901244 -52.30859375 347.3359375 C-57.71400868 345.3796921 -62.84185892 344.61831328 -68.25 346.984375 C-69.74255697 347.84792582 -71.22274619 348.73312374 -72.69140625 349.63671875 C-86.87886072 358.0147587 -105.58901277 359.36373097 -121.66992188 360.77783203 C-123.86534282 360.98716073 -126.04715358 361.2460569 -128.234375 361.52734375 C-141.96727506 363.22111416 -155.7418367 363.40791255 -169.5612793 363.65844727 C-204.16602574 364.29979716 -233.79418076 372.3155294 -262.0625 392.9375 C-265 395 -265 395 -267 395 C-267 395.66 -267 396.32 -267 397 C-268.6171875 398.41015625 -268.6171875 398.41015625 -270.875 400.0625 C-275.49795551 403.53521143 -279.71736518 407.32504185 -283.93359375 411.27734375 C-286 413 -286 413 -288 413 C-288 413.66 -288 414.32 -288 415 C-288.66 415 -289.32 415 -290 415 C-290 415.66 -290 416.32 -290 417 C-290.66 417 -291.32 417 -292 417 C-292 417.66 -292 418.32 -292 419 C-292.66 419 -293.32 419 -294 419 C-294 419.66 -294 420.32 -294 421 C-294.66 421 -295.32 421 -296 421 C-296 421.66 -296 422.32 -296 423 C-296.66 423 -297.32 423 -298 423 C-298 423.66 -298 424.32 -298 425 C-298.66 425 -299.32 425 -300 425 C-300.268125 425.598125 -300.53625 426.19625 -300.8125 426.8125 C-301.99917406 428.99847854 -303.09599113 430.41332594 -305 432 C-305.66 432 -306.32 432 -307 432 C-307.226875 432.53625 -307.45375 433.0725 -307.6875 433.625 C-309.45570089 436.82460161 -311.53670203 439.29037223 -314 442 C-314.66 442 -315.32 442 -316 442 C-316 442.66 -316 443.32 -316 444 C-316.66 444 -317.32 444 -318 444 C-318.66 445.65 -319.32 447.3 -320 449 C-320.66 449 -321.32 449 -322 449 C-322.268125 449.57234375 -322.53625 450.1446875 -322.8125 450.734375 C-324.04132636 453.07884634 -325.42522176 455.12404938 -327 457.25 C-327.7734375 458.30960937 -327.7734375 458.30960937 -328.5625 459.390625 C-329.036875 459.92171875 -329.51125 460.4528125 -330 461 C-330.66 461 -331.32 461 -332 461 C-332.2578125 461.55171875 -332.515625 462.1034375 -332.78125 462.671875 C-334.17963125 465.34314175 -335.78763305 467.76851909 -337.5 470.25 C-338.1084375 471.14203125 -338.716875 472.0340625 -339.34375 472.953125 C-339.8903125 473.62859375 -340.436875 474.3040625 -341 475 C-341.66 475 -342.32 475 -343 475 C-343.28875 475.763125 -343.5775 476.52625 -343.875 477.3125 C-345 480 -345 480 -347 483 C-347.66 483 -348.32 483 -349 483 C-349.309375 483.804375 -349.61875 484.60875 -349.9375 485.4375 C-351 488 -351 488 -352 489 C-353.65738443 489.09346915 -355.31874644 489.11744977 -356.97875977 489.11352539 C-358.03978409 489.11344986 -359.10080841 489.11337433 -360.19398499 489.11329651 C-361.92520851 489.10555458 -361.92520851 489.10555458 -363.69140625 489.09765625 C-364.86638168 489.0962413 -366.04135712 489.09482635 -367.25193787 489.09336853 C-371.02215064 489.08774992 -374.79230504 489.07519426 -378.5625 489.0625 C-381.11132727 489.0574874 -383.66015547 489.05292408 -386.20898438 489.04882812 C-392.47267633 489.03777444 -398.73633399 489.02101821 -405 489 C-403.57607889 485.21208204 -402.28315009 482.95971767 -399.3125 480.1875 C-396.56810086 477.55188785 -393.97222223 474.89278418 -391.5 472 C-388.37855365 468.36071002 -385.04354409 464.99972806 -381.6015625 461.6640625 C-379.91371276 460.07577267 -379.91371276 460.07577267 -379 458 C-378.34 458 -377.68 458 -377 458 C-377 457.34 -377 456.68 -377 456 C-376.34 456 -375.68 456 -375 456 C-374.74347656 455.41476562 -374.48695313 454.82953125 -374.22265625 454.2265625 C-372.89437838 451.80765392 -371.43475199 450.26801128 -369.4375 448.375 C-366.85984611 445.95478041 -366.85984611 445.95478041 -365 443 C-364.34 443 -363.68 443 -363 443 C-363 442.34 -363 441.68 -363 441 C-362.34 441 -361.68 441 -361 441 C-361 440.34 -361 439.68 -361 439 C-360.34 439 -359.68 439 -359 439 C-359 438.34 -359 437.68 -359 437 C-358.34 437 -357.68 437 -357 437 C-356.731875 436.41734375 -356.46375 435.8346875 -356.1875 435.234375 C-354.98519009 432.97213399 -353.66174087 431.19423682 -352 429.25 C-351.484375 428.63640625 -350.96875 428.0228125 -350.4375 427.390625 C-349 426 -349 426 -347 426 C-347 425.34 -347 424.68 -347 424 C-346.34 424 -345.68 424 -345 424 C-345 423.34 -345 422.68 -345 422 C-344.34 422 -343.68 422 -343 422 C-342.75378906 421.42507813 -342.50757813 420.85015625 -342.25390625 420.2578125 C-340.80206947 417.64360173 -339.09712451 415.93663792 -336.9375 413.875 C-334.08428067 411.22095 -334.08428067 411.22095 -332 408 C-331.34 408 -330.68 408 -330 408 C-330 407.34 -330 406.68 -330 406 C-329.34 406 -328.68 406 -328 406 C-327.75378906 405.42507813 -327.50757813 404.85015625 -327.25390625 404.2578125 C-325.80206947 401.64360173 -324.09712451 399.93663792 -321.9375 397.875 C-319.08428067 395.22095 -319.08428067 395.22095 -317 392 C-316.34 392 -315.68 392 -315 392 C-315 391.34 -315 390.68 -315 390 C-314.34 390 -313.68 390 -313 390 C-312.74347656 389.41476562 -312.48695313 388.82953125 -312.22265625 388.2265625 C-310.89437838 385.80765392 -309.43475199 384.26801128 -307.4375 382.375 C-304.85984611 379.95478041 -304.85984611 379.95478041 -303 377 C-302.34 377 -301.68 377 -301 377 C-301 376.34 -301 375.68 -301 375 C-300.34 375 -299.68 375 -299 375 C-298.34 373.68 -297.68 372.36 -297 371 C-296.34 371 -295.68 371 -295 371 C-295 370.34 -295 369.68 -295 369 C-294.34 369 -293.68 369 -293 369 C-292.71125 368.401875 -292.4225 367.80375 -292.125 367.1875 C-291 365 -291 365 -289 362 C-288.34 362 -287.68 362 -287 362 C-287 361.34 -287 360.68 -287 360 C-286.34 360 -285.68 360 -285 360 C-285 359.34 -285 358.68 -285 358 C-284.34 358 -283.68 358 -283 358 C-283 357.34 -283 356.68 -283 356 C-282.34 356 -281.68 356 -281 356 C-280.7421875 355.42765625 -280.484375 354.8553125 -280.21875 354.265625 C-278.88634058 351.78871005 -277.34943882 349.8658834 -275.5 347.75 C-274.8915625 347.04359375 -274.283125 346.3371875 -273.65625 345.609375 C-272 344 -272 344 -270 344 C-270 343.34 -270 342.68 -270 342 C-269.34 342 -268.68 342 -268 342 C-267.7321167 341.40541992 -267.4642334 340.81083984 -267.18823242 340.19824219 C-265.98789327 337.97760243 -264.79297002 336.5756393 -262.98828125 334.828125 C-262.39821289 334.24973877 -261.80814453 333.67135254 -261.20019531 333.07543945 C-260.57725586 332.47304443 -259.95431641 331.87064941 -259.3125 331.25 C-250.51568963 322.67622072 -250.51568963 322.67622072 -243 313 C-242.34 313 -241.68 313 -241 313 C-241 312.34 -241 311.68 -241 311 C-240.34 311 -239.68 311 -239 311 C-239 310.34 -239 309.68 -239 309 C-238.34 309 -237.68 309 -237 309 C-236.74347656 308.41476562 -236.48695313 307.82953125 -236.22265625 307.2265625 C-234.89437838 304.80765392 -233.43475199 303.26801128 -231.4375 301.375 C-228.85984611 298.95478041 -228.85984611 298.95478041 -227 296 C-226.34 296 -225.68 296 -225 296 C-225 295.34 -225 294.68 -225 294 C-224.34 294 -223.68 294 -223 294 C-223 293.34 -223 292.68 -223 292 C-222.34 292 -221.68 292 -221 292 C-221 291.34 -221 290.68 -221 290 C-220.34 290 -219.68 290 -219 290 C-219 289.34 -219 288.68 -219 288 C-218.34 288 -217.68 288 -217 288 C-217 287.34 -217 286.68 -217 286 C-216.34 286 -215.68 286 -215 286 C-214.6596875 285.195625 -214.6596875 285.195625 -214.3125 284.375 C-212.54429911 281.17539839 -210.46329797 278.70962777 -208 276 C-207.34 276 -206.68 276 -206 276 C-205.73960937 275.41089844 -205.47921875 274.82179688 -205.2109375 274.21484375 C-203.92577526 271.86424056 -202.56513183 270.39672944 -200.625 268.5625 C-197.83330187 265.85732144 -195.41083139 263.05371976 -193 260 C-191.3563186 258.31066078 -189.6857124 256.64740076 -188 255 C-186.58033185 253.60721951 -185.16384234 252.21119403 -183.75 250.8125 C-182.72132813 249.80123047 -182.72132813 249.80123047 -181.671875 248.76953125 C-179.92550889 247.09201005 -179.92550889 247.09201005 -179 245 C-178.34 245 -177.68 245 -177 245 C-176.7525 244.443125 -176.505 243.88625 -176.25 243.3125 C-175 241 -175 241 -172.9375 238.6875 C-170.51926577 235.3331751 -170.07351842 233.11703133 -170 229 C-171.34278923 225.52454551 -172.50442551 224.29640521 -175.70283508 222.38342285 C-179.31129084 220.86938874 -181.79547207 220.62219499 -185.69213867 220.61523438 C-187.65898872 220.60006775 -187.65898872 220.60006775 -189.66557312 220.58459473 C-190.35858709 220.58615067 -191.05160107 220.5877066 -191.76561546 220.58930969 C-193.94733567 220.59381058 -196.12825461 220.57972764 -198.30989075 220.56091309 C-203.72276874 220.51802272 -209.13562682 220.50686346 -214.54864502 220.49468994 C-219.13426684 220.48316858 -223.71951944 220.45964537 -228.30498695 220.41999817 C-230.453904 220.40641788 -232.6023233 220.41059872 -234.75126648 220.41540527 C-236.05304337 220.40529419 -237.35482025 220.39518311 -238.69604492 220.38476562 C-240.41763069 220.38168396 -240.41763069 220.38168396 -242.17399597 220.37854004 C-245 220 -245 220 -246.89399719 218.64782715 C-248 217 -248 217 -248 214.25 C-246.76971358 210.25156912 -244.89001311 207.04306677 -242 204 C-241.34 204 -240.68 204 -240 204 C-239.72220703 203.40904541 -239.44441406 202.81809082 -239.15820312 202.20922852 C-238.07465366 200.14239902 -236.92341179 198.46879643 -235.46875 196.65234375 C-234.98792969 196.04712891 -234.50710937 195.44191406 -234.01171875 194.81835938 C-233.51285156 194.19767578 -233.01398438 193.57699219 -232.5 192.9375 C-231.50944672 191.69738872 -230.51982835 190.45652996 -229.53125 189.21484375 C-229.09361328 188.66948975 -228.65597656 188.12413574 -228.20507812 187.56225586 C-227.06994425 186.0906753 -226.03091867 184.54637801 -225 183 C-224.34 183 -223.68 183 -223 183 C-222.62875 182.195625 -222.62875 182.195625 -222.25 181.375 C-220.69347463 178.4176018 -218.96564327 175.70275949 -217 173 C-216.34 173 -215.68 173 -215 173 C-214.74863281 172.26523438 -214.49726563 171.53046875 -214.23828125 170.7734375 C-212.90823352 167.79446624 -211.41863697 165.9883841 -209.1875 163.625 C-206.6114804 160.83392251 -204.25984819 158.07923181 -202.125 154.9375 C-201.42375 153.968125 -200.7225 152.99875 -200 152 C-199.34 152 -198.68 152 -198 152 C-197.773125 151.4225 -197.54625 150.845 -197.3125 150.25 C-195.65598007 147.41025155 -193.60531294 145.98500033 -191 144 C-190.278125 143.2575 -189.55625 142.515 -188.8125 141.75 C-187 140 -187 140 -185 140 C-185 139.34 -185 138.68 -185 138 C-184.01 138 -183.02 138 -182 138 C-182 137.34 -182 136.68 -182 136 C-163.01720123 119.77924867 -135.62682469 114.74119349 -111.4375 114.9375 C-80.28251161 115.18888506 -53.15306445 107.8128004 -26.8203125 91.03125 C-25 90 -25 90 -23 90 C-23 89.34 -23 88.68 -23 88 C-20.36107824 86.21694476 -18.02821137 85.00940379 -15 84 C-15 83.34 -15 82.68 -15 82 C-13.50390625 80.5625 -13.50390625 80.5625 -11.5625 79 C-8.84811762 76.85474956 -8.84811762 76.85474956 -7 74 C-6.34 74 -5.68 74 -5 74 C-4.59587891 72.93072266 -4.59587891 72.93072266 -4.18359375 71.83984375 C-2.98162498 68.95591209 -1.55720771 66.30469914 -0.0625 63.5625 C8.17388937 47.17027275 7.29224928 29.54741178 1.875 12.44921875 C1.16862172 10.44045552 0.43775182 8.43996488 -0.328125 6.453125 C-1.04843446 3.82315789 -0.92176314 2.52893989 0 0 Z M-134 195 C-132.03912717 202.58548175 -129.39177149 208.32192133 -122.52734375 212.5078125 C-112.1335633 217.86543129 -100.28545367 218.92767361 -89 215.5 C-87.65816189 215.02329436 -86.32039295 214.53323562 -85 214 C-88.36511262 211.12715109 -91.76316523 209.84427924 -95.92578125 208.40625 C-96.92450508 208.05705505 -96.92450508 208.05705505 -97.94340515 207.70080566 C-100.06417024 206.96048255 -102.18808093 206.22976412 -104.3125 205.5 C-106.42560982 204.76864116 -108.53796888 204.03521395 -110.64945984 203.29919434 C-112.57260423 202.62967009 -114.49779558 201.96603407 -116.4230957 201.30273438 C-120.02049126 199.99253693 -123.4905066 198.52658114 -127 197 C-128.30191187 196.57062166 -129.61245011 196.16404385 -130.9375 195.8125 C-131.948125 195.544375 -132.95875 195.27625 -134 195 Z " fill="#040404" transform="translate(462,11)"/>
<path d="M0 0 C1.50780281 -0.00087616 1.50780281 -0.00087616 3.04606628 -0.00177002 C6.36862722 0.00101671 9.69029109 0.03213753 13.01269531 0.06347656 C15.31625885 0.07093683 17.61982873 0.07663077 19.92340088 0.08062744 C25.98656738 0.09590049 32.04935065 0.13519723 38.11236572 0.17944336 C44.2991416 0.22035972 50.48597939 0.23863072 56.67285156 0.25878906 C68.81234287 0.30168944 80.95154972 0.36996139 93.09082031 0.45410156 C94.20001221 4.2454834 94.20001221 4.2454834 93.21728516 6.12304688 C92.75016113 6.67057617 92.28303711 7.21810547 91.80175781 7.78222656 C91.278479 8.40935547 90.7552002 9.03648438 90.21606445 9.68261719 C89.3496936 10.68325195 89.3496936 10.68325195 88.46582031 11.70410156 C87.26369515 13.13613956 86.06188128 14.56843893 84.86035156 16.00097656 C84.23725098 16.73509766 83.61415039 17.46921875 82.97216797 18.22558594 C79.98539914 21.7635078 77.07027697 25.3586038 74.15332031 28.95410156 C73.63495605 29.58735352 73.1165918 30.22060547 72.58251953 30.87304688 C69.45558431 34.70658302 66.45633218 38.61499497 63.50366211 42.58398438 C61.5672902 45.14707558 59.52419409 47.61341707 57.46582031 50.07910156 C55.03146841 53.02078059 52.69189409 55.91195097 50.65332031 59.14160156 C50.13769531 59.90472656 49.62207031 60.66785156 49.09082031 61.45410156 C48.43082031 61.45410156 47.77082031 61.45410156 47.09082031 61.45410156 C47.09082031 62.11410156 47.09082031 62.77410156 47.09082031 63.45410156 C46.43082031 63.45410156 45.77082031 63.45410156 45.09082031 63.45410156 C44.88457031 64.11410156 44.67832031 64.77410156 44.46582031 65.45410156 C42.59957779 69.52590343 40.11520504 73.14207154 37.09082031 76.45410156 C36.43082031 76.45410156 35.77082031 76.45410156 35.09082031 76.45410156 C34.78144531 77.07285156 34.47207031 77.69160156 34.15332031 78.32910156 C33.46582031 79.70410156 32.77832031 81.07910156 32.09082031 82.45410156 C31.43082031 82.45410156 30.77082031 82.45410156 30.09082031 82.45410156 C29.86265625 83.15664062 29.63449219 83.85917969 29.39941406 84.58300781 C27.82896853 88.02861219 25.64186252 90.5906431 23.15332031 93.39160156 C18.42726081 98.81781803 13.9503879 104.38790773 9.62036133 110.13549805 C8.48849348 111.61039437 7.29495844 113.0375934 6.09082031 114.45410156 C5.43082031 114.45410156 4.77082031 114.45410156 4.09082031 114.45410156 C3.88457031 115.11410156 3.67832031 115.77410156 3.46582031 116.45410156 C1.59957779 120.52590343 -0.88479496 124.14207154 -3.90917969 127.45410156 C-4.56917969 127.45410156 -5.22917969 127.45410156 -5.90917969 127.45410156 C-6.28042969 128.25847656 -6.28042969 128.25847656 -6.65917969 129.07910156 C-8.21570505 132.03649976 -9.94353642 134.75134207 -11.90917969 137.45410156 C-12.56917969 137.45410156 -13.22917969 137.45410156 -13.90917969 137.45410156 C-14.16699219 138.00582031 -14.42480469 138.55753906 -14.69042969 139.12597656 C-16.08881094 141.79724331 -17.69681274 144.22262065 -19.40917969 146.70410156 C-20.01761719 147.59613281 -20.62605469 148.48816406 -21.25292969 149.40722656 C-21.79949219 150.08269531 -22.34605469 150.75816406 -22.90917969 151.45410156 C-23.56917969 151.45410156 -24.22917969 151.45410156 -24.90917969 151.45410156 C-25.16054687 152.01484375 -25.41191406 152.57558594 -25.67089844 153.15332031 C-27.09739948 155.80382225 -28.80838988 157.94358239 -30.72167969 160.26660156 C-31.42808594 161.141875 -32.13449219 162.01714844 -32.86230469 162.91894531 C-34.10118857 164.45336447 -35.3406143 165.98734667 -36.58105469 167.52050781 C-38.14485707 169.49174834 -38.14485707 169.49174834 -39.90917969 172.45410156 C-39.57917969 173.77410156 -39.24917969 175.09410156 -38.90917969 176.45410156 C-13.16917969 176.78410156 12.57082031 177.11410156 39.09082031 177.45410156 C39.09082031 178.11410156 39.09082031 178.77410156 39.09082031 179.45410156 C39.75082031 179.45410156 40.41082031 179.45410156 41.09082031 179.45410156 C42.01301885 182.56652164 42.4800049 184.29008145 42.09082031 187.45410156 C39.86094308 191.19351564 37.22759247 194.43488102 34.09082031 197.45410156 C33.43082031 197.45410156 32.77082031 197.45410156 32.09082031 197.45410156 C32.09082031 198.11410156 32.09082031 198.77410156 32.09082031 199.45410156 C31.43082031 199.45410156 30.77082031 199.45410156 30.09082031 199.45410156 C30.09082031 200.11410156 30.09082031 200.77410156 30.09082031 201.45410156 C29.43082031 201.45410156 28.77082031 201.45410156 28.09082031 201.45410156 C28.09082031 202.11410156 28.09082031 202.77410156 28.09082031 203.45410156 C27.43082031 203.45410156 26.77082031 203.45410156 26.09082031 203.45410156 C25.80207031 204.05222656 25.51332031 204.65035156 25.21582031 205.26660156 C24.09082031 207.45410156 24.09082031 207.45410156 22.09082031 210.45410156 C21.43082031 210.45410156 20.77082031 210.45410156 20.09082031 210.45410156 C20.09082031 211.11410156 20.09082031 211.77410156 20.09082031 212.45410156 C19.43082031 212.45410156 18.77082031 212.45410156 18.09082031 212.45410156 C17.85492188 213.01871094 17.61902344 213.58332031 17.37597656 214.16503906 C15.7984709 216.97482119 13.85030746 218.85029207 11.52832031 221.07910156 C8.40039978 223.96480837 8.40039978 223.96480837 6.09082031 227.45410156 C5.43082031 227.45410156 4.77082031 227.45410156 4.09082031 227.45410156 C4.09082031 228.11410156 4.09082031 228.77410156 4.09082031 229.45410156 C3.43082031 229.45410156 2.77082031 229.45410156 2.09082031 229.45410156 C1.83429688 230.03933594 1.57777344 230.62457031 1.31347656 231.22753906 C-0.01480131 233.64644764 -1.4744277 235.18609029 -3.47167969 237.07910156 C-6.04933358 239.49932115 -6.04933358 239.49932115 -7.90917969 242.45410156 C-8.56917969 242.45410156 -9.22917969 242.45410156 -9.90917969 242.45410156 C-9.90917969 243.11410156 -9.90917969 243.77410156 -9.90917969 244.45410156 C-10.56917969 244.45410156 -11.22917969 244.45410156 -11.90917969 244.45410156 C-12.12058594 244.99421875 -12.33199219 245.53433594 -12.54980469 246.09082031 C-14.4117221 249.32777444 -16.99009129 251.70188188 -19.65917969 254.26660156 C-23.10939214 257.6335153 -26.46844999 260.97489305 -29.53417969 264.70410156 C-30.31792969 265.61160156 -31.10167969 266.51910156 -31.90917969 267.45410156 C-32.56917969 267.45410156 -33.22917969 267.45410156 -33.90917969 267.45410156 C-34.28042969 268.28941406 -34.28042969 268.28941406 -34.65917969 269.14160156 C-36.13842787 271.8782107 -37.84385408 274.13061026 -39.90917969 276.45410156 C-40.56917969 276.45410156 -41.22917969 276.45410156 -41.90917969 276.45410156 C-41.90917969 277.11410156 -41.90917969 277.77410156 -41.90917969 278.45410156 C-42.56917969 278.45410156 -43.22917969 278.45410156 -43.90917969 278.45410156 C-44.28042969 279.28941406 -44.28042969 279.28941406 -44.65917969 280.14160156 C-47.00240886 284.47657552 -50.25483858 288.16519457 -53.90917969 291.45410156 C-54.56917969 291.45410156 -55.22917969 291.45410156 -55.90917969 291.45410156 C-55.90917969 292.11410156 -55.90917969 292.77410156 -55.90917969 293.45410156 C-56.56917969 293.45410156 -57.22917969 293.45410156 -57.90917969 293.45410156 C-58.56917969 294.77410156 -59.22917969 296.09410156 -59.90917969 297.45410156 C-60.56917969 297.45410156 -61.22917969 297.45410156 -61.90917969 297.45410156 C-62.28042969 298.28941406 -62.28042969 298.28941406 -62.65917969 299.14160156 C-64.13842787 301.8782107 -65.84385408 304.13061026 -67.90917969 306.45410156 C-68.56917969 306.45410156 -69.22917969 306.45410156 -69.90917969 306.45410156 C-69.90917969 307.11410156 -69.90917969 307.77410156 -69.90917969 308.45410156 C-70.56917969 308.45410156 -71.22917969 308.45410156 -71.90917969 308.45410156 C-71.90917969 309.11410156 -71.90917969 309.77410156 -71.90917969 310.45410156 C-72.56917969 310.45410156 -73.22917969 310.45410156 -73.90917969 310.45410156 C-73.90917969 311.11410156 -73.90917969 311.77410156 -73.90917969 312.45410156 C-74.56917969 312.45410156 -75.22917969 312.45410156 -75.90917969 312.45410156 C-76.16699219 313.02644531 -76.42480469 313.59878906 -76.69042969 314.18847656 C-78.02283911 316.66539151 -79.55974087 318.58821817 -81.40917969 320.70410156 C-82.32183594 321.76371094 -82.32183594 321.76371094 -83.25292969 322.84472656 C-84.90917969 324.45410156 -84.90917969 324.45410156 -86.90917969 324.45410156 C-86.90917969 325.11410156 -86.90917969 325.77410156 -86.90917969 326.45410156 C-87.56917969 326.45410156 -88.22917969 326.45410156 -88.90917969 326.45410156 C-89.121875 326.99550781 -89.33457031 327.53691406 -89.55371094 328.09472656 C-91.39939691 331.30739034 -93.94895037 333.65942031 -96.59667969 336.20410156 C-102.17741487 341.67232192 -107.44573386 347.25827994 -112.22167969 353.45410156 C-112.77855469 354.11410156 -113.33542969 354.77410156 -113.90917969 355.45410156 C-114.56917969 355.45410156 -115.22917969 355.45410156 -115.90917969 355.45410156 C-115.90917969 356.11410156 -115.90917969 356.77410156 -115.90917969 357.45410156 C-116.56917969 357.45410156 -117.22917969 357.45410156 -117.90917969 357.45410156 C-117.90917969 358.11410156 -117.90917969 358.77410156 -117.90917969 359.45410156 C-118.56917969 359.45410156 -119.22917969 359.45410156 -119.90917969 359.45410156 C-120.16570312 360.03933594 -120.42222656 360.62457031 -120.68652344 361.22753906 C-122.01480131 363.64644764 -123.4744277 365.18609029 -125.47167969 367.07910156 C-128.04933358 369.49932115 -128.04933358 369.49932115 -129.90917969 372.45410156 C-130.56917969 372.45410156 -131.22917969 372.45410156 -131.90917969 372.45410156 C-131.90917969 373.11410156 -131.90917969 373.77410156 -131.90917969 374.45410156 C-132.56917969 374.45410156 -133.22917969 374.45410156 -133.90917969 374.45410156 C-133.90917969 375.11410156 -133.90917969 375.77410156 -133.90917969 376.45410156 C-134.56917969 376.45410156 -135.22917969 376.45410156 -135.90917969 376.45410156 C-135.90917969 377.11410156 -135.90917969 377.77410156 -135.90917969 378.45410156 C-136.56917969 378.45410156 -137.22917969 378.45410156 -137.90917969 378.45410156 C-138.163125 379.03675781 -138.41707031 379.61941406 -138.67871094 380.21972656 C-140.04238302 382.69598189 -141.55143172 384.25930782 -143.59667969 386.20410156 C-148.23742889 390.72736345 -152.48435008 395.51643443 -156.60839844 400.51269531 C-157.14078125 401.15335937 -157.67316406 401.79402344 -158.22167969 402.45410156 C-158.6921875 403.03160156 -159.16269531 403.60910156 -159.64746094 404.20410156 C-160.90917969 405.45410156 -160.90917969 405.45410156 -162.90917969 405.45410156 C-162.90917969 406.11410156 -162.90917969 406.77410156 -162.90917969 407.45410156 C-164.53797659 409.18161343 -166.19205871 410.81793666 -167.90917969 412.45410156 C-169.16324247 413.67912289 -170.41314637 414.90841395 -171.65917969 416.14160156 C-172.25214844 416.72296875 -172.84511719 417.30433594 -173.45605469 417.90332031 C-175.00559773 419.4092413 -175.00559773 419.4092413 -175.90917969 421.45410156 C-176.56917969 421.45410156 -177.22917969 421.45410156 -177.90917969 421.45410156 C-177.90917969 422.11410156 -177.90917969 422.77410156 -177.90917969 423.45410156 C-178.56917969 423.45410156 -179.22917969 423.45410156 -179.90917969 423.45410156 C-180.1734375 424.03675781 -180.43769531 424.61941406 -180.70996094 425.21972656 C-182.73259953 428.98829097 -185.45610064 431.93522226 -188.90917969 434.45410156 C-192.78417969 434.95410156 -192.78417969 434.95410156 -195.90917969 434.45410156 C-196.90917969 433.45410156 -196.90917969 433.45410156 -197.16699219 430.31347656 C-196.87559018 425.95127682 -195.82869804 423.55361311 -193.78417969 419.70410156 C-193.43726074 419.03999268 -193.0903418 418.37588379 -192.73291016 417.69165039 C-191.93208513 416.1604417 -191.12515104 414.63241887 -190.31347656 413.10693359 C-188.72541334 410.10695186 -187.16743439 407.0923785 -185.61230469 404.07519531 C-170.12894727 374.04997816 -170.12894727 374.04997816 -162.83496094 360.62597656 C-159.19116996 353.90662712 -155.76844865 347.13106196 -152.53417969 340.20410156 C-147.35894332 329.12263791 -141.65205256 318.33992692 -135.81542969 307.59472656 C-132.21516584 300.94747276 -128.84087828 294.2501965 -125.65917969 287.39160156 C-122.31608956 280.19646669 -118.67968115 273.21260312 -114.84667969 266.26660156 C-109.38005657 256.34696734 -109.38005657 256.34696734 -104.09667969 246.32910156 C-103.5812561 245.36194214 -103.5812561 245.36194214 -103.05541992 244.37524414 C-101.2912959 240.90014086 -100.7282904 239.14919059 -101.90917969 235.45410156 C-128.13922625 235.15251738 -128.13922625 235.15251738 -154.34667969 235.95410156 C-163.12535437 236.44399898 -171.90003441 236.6611766 -180.69119263 236.74121094 C-182.24082654 236.7580041 -183.79040187 236.78181589 -185.33981323 236.81298828 C-187.51168203 236.85492205 -189.68226941 236.8706531 -191.85449219 236.87988281 C-193.11793457 236.89446533 -194.38137695 236.90904785 -195.68310547 236.92407227 C-198.90917969 236.45410156 -198.90917969 236.45410156 -201.32666016 234.61499023 C-203.45461666 231.70932177 -203.35043408 229.98413668 -202.90917969 226.45410156 C-201.90917969 224.07910156 -201.90917969 224.07910156 -200.90917969 222.45410156 C-200.24917969 222.45410156 -199.58917969 222.45410156 -198.90917969 222.45410156 C-198.62042969 221.85597656 -198.33167969 221.25785156 -198.03417969 220.64160156 C-196.90917969 218.45410156 -196.90917969 218.45410156 -194.90917969 215.45410156 C-194.24917969 215.45410156 -193.58917969 215.45410156 -192.90917969 215.45410156 C-192.62042969 214.85597656 -192.33167969 214.25785156 -192.03417969 213.64160156 C-190.90917969 211.45410156 -190.90917969 211.45410156 -188.90917969 208.45410156 C-188.24917969 208.45410156 -187.58917969 208.45410156 -186.90917969 208.45410156 C-186.63533447 207.86185791 -186.36148926 207.26961426 -186.0793457 206.65942383 C-184.95100255 204.53292191 -183.77838274 202.96304794 -182.18652344 201.16894531 C-181.38504883 200.25713501 -181.38504883 200.25713501 -180.56738281 199.3269043 C-179.99955078 198.68825439 -179.43171875 198.04960449 -178.84667969 197.39160156 C-177.66710043 196.04889943 -176.48872176 194.70514165 -175.31152344 193.36035156 C-174.44309814 192.36841797 -174.44309814 192.36841797 -173.55712891 191.35644531 C-169.34739441 186.49685254 -165.31025627 181.48641941 -161.31933594 176.44628906 C-160.22410115 175.08121383 -159.07409498 173.76021871 -157.90917969 172.45410156 C-157.24917969 172.45410156 -156.58917969 172.45410156 -155.90917969 172.45410156 C-155.64105469 171.88175781 -155.37292969 171.30941406 -155.09667969 170.71972656 C-153.86785333 168.37525522 -152.48395793 166.33005218 -150.90917969 164.20410156 C-150.39355469 163.49769531 -149.87792969 162.79128906 -149.34667969 162.06347656 C-148.87230469 161.53238281 -148.39792969 161.00128906 -147.90917969 160.45410156 C-147.24917969 160.45410156 -146.58917969 160.45410156 -145.90917969 160.45410156 C-145.90917969 159.79410156 -145.90917969 159.13410156 -145.90917969 158.45410156 C-145.24917969 158.45410156 -144.58917969 158.45410156 -143.90917969 158.45410156 C-143.24917969 156.80410156 -142.58917969 155.15410156 -141.90917969 153.45410156 C-141.24917969 153.45410156 -140.58917969 153.45410156 -139.90917969 153.45410156 C-139.69519531 152.93074219 -139.48121094 152.40738281 -139.26074219 151.86816406 C-137.35948513 148.47227718 -134.85008994 145.7407112 -132.28417969 142.82910156 C-127.8264216 137.71938126 -123.54371463 132.54414531 -119.43261719 127.14941406 C-118.92988281 126.58996094 -118.42714844 126.03050781 -117.90917969 125.45410156 C-117.24917969 125.45410156 -116.58917969 125.45410156 -115.90917969 125.45410156 C-115.68230469 124.91785156 -115.45542969 124.38160156 -115.22167969 123.82910156 C-113.4534788 120.62949995 -111.37247766 118.16372933 -108.90917969 115.45410156 C-108.24917969 115.45410156 -107.58917969 115.45410156 -106.90917969 115.45410156 C-106.53792969 114.37128906 -106.53792969 114.37128906 -106.15917969 113.26660156 C-104.78648377 110.17803575 -103.18564673 107.94398739 -100.90917969 105.45410156 C-100.24917969 105.45410156 -99.58917969 105.45410156 -98.90917969 105.45410156 C-98.62042969 104.85597656 -98.33167969 104.25785156 -98.03417969 103.64160156 C-96.90917969 101.45410156 -96.90917969 101.45410156 -94.90917969 98.45410156 C-94.24917969 98.45410156 -93.58917969 98.45410156 -92.90917969 98.45410156 C-92.64105469 97.87660156 -92.37292969 97.29910156 -92.09667969 96.70410156 C-90.8798878 94.39860114 -89.6058409 92.43353964 -87.90917969 90.45410156 C-87.24917969 90.45410156 -86.58917969 90.45410156 -85.90917969 90.45410156 C-85.62042969 89.85597656 -85.33167969 89.25785156 -85.03417969 88.64160156 C-83.90917969 86.45410156 -83.90917969 86.45410156 -81.90917969 83.45410156 C-81.24917969 83.45410156 -80.58917969 83.45410156 -79.90917969 83.45410156 C-79.24917969 81.80410156 -78.58917969 80.15410156 -77.90917969 78.45410156 C-77.24917969 78.45410156 -76.58917969 78.45410156 -75.90917969 78.45410156 C-75.64105469 77.87660156 -75.37292969 77.29910156 -75.09667969 76.70410156 C-73.8798878 74.39860114 -72.6058409 72.43353964 -70.90917969 70.45410156 C-70.24917969 70.45410156 -69.58917969 70.45410156 -68.90917969 70.45410156 C-68.47605469 69.55691406 -68.47605469 69.55691406 -68.03417969 68.64160156 C-66.90917969 66.45410156 -66.90917969 66.45410156 -64.90917969 63.45410156 C-64.24917969 63.45410156 -63.58917969 63.45410156 -62.90917969 63.45410156 C-62.64105469 62.88175781 -62.37292969 62.30941406 -62.09667969 61.71972656 C-60.86785333 59.37525522 -59.48395793 57.33005218 -57.90917969 55.20410156 C-57.39355469 54.49769531 -56.87792969 53.79128906 -56.34667969 53.06347656 C-55.87230469 52.53238281 -55.39792969 52.00128906 -54.90917969 51.45410156 C-54.24917969 51.45410156 -53.58917969 51.45410156 -52.90917969 51.45410156 C-52.90917969 50.79410156 -52.90917969 50.13410156 -52.90917969 49.45410156 C-52.24917969 49.45410156 -51.58917969 49.45410156 -50.90917969 49.45410156 C-50.53792969 48.62652344 -50.53792969 48.62652344 -50.15917969 47.78222656 C-48.66683495 45.00273449 -46.87245445 42.67263087 -44.90917969 40.20410156 C-44.20792969 39.31207031 -43.50667969 38.42003906 -42.78417969 37.50097656 C-41.85605469 36.48777344 -41.85605469 36.48777344 -40.90917969 35.45410156 C-40.24917969 35.45410156 -39.58917969 35.45410156 -38.90917969 35.45410156 C-37.91917969 32.97910156 -37.91917969 32.97910156 -36.90917969 30.45410156 C-36.24917969 30.45410156 -35.58917969 30.45410156 -34.90917969 30.45410156 C-34.90917969 29.79410156 -34.90917969 29.13410156 -34.90917969 28.45410156 C-34.24917969 28.45410156 -33.58917969 28.45410156 -32.90917969 28.45410156 C-32.63138672 27.86532227 -32.35359375 27.27654297 -32.06738281 26.66992188 C-30.25499604 23.20254786 -27.82164842 20.27111607 -25.40917969 17.20410156 C-24.66087891 16.22957031 -24.66087891 16.22957031 -23.89746094 15.23535156 C-22.61733775 13.60173592 -21.26812369 12.02275915 -19.90917969 10.45410156 C-19.24917969 10.45410156 -18.58917969 10.45410156 -17.90917969 10.45410156 C-17.90917969 9.79410156 -17.90917969 9.13410156 -17.90917969 8.45410156 C-17.24917969 8.45410156 -16.58917969 8.45410156 -15.90917969 8.45410156 C-15.66167969 7.87660156 -15.41417969 7.29910156 -15.15917969 6.70410156 C-11.31382624 -0.21753464 -7.35523181 -0.11149082 0 0 Z " fill="#E1EF03" transform="translate(207.9091796875,72.5458984375)"/>
<path d="M0 0 C26.07 0.33 52.14 0.66 79 1 C79 1.66 79 2.32 79 3 C79.66 3 80.32 3 81 3 C82.14507772 8.19689119 82.14507772 8.19689119 82 11 C79.5625 14 79.5625 14 77 16 C77 14.68 77 13.36 77 12 C77.66 12 78.32 12 79 12 C79 9.36 79 6.72 79 4 C76.69 4.33 74.38 4.66 72 5 C72 4.34 72 3.68 72 3 C70.5936731 3.00785522 70.5936731 3.00785522 69.15893555 3.01586914 C46.08488244 3.13279098 23.06022954 2.80619677 0 2 C0 1.34 0 0.68 0 0 Z " fill="#E0EB30" transform="translate(168,249)"/>
<path d="M0 0 C1.50780281 -0.00087616 1.50780281 -0.00087616 3.04606628 -0.00177002 C6.36862722 0.00101671 9.69029109 0.03213753 13.01269531 0.06347656 C15.31625885 0.07093683 17.61982873 0.07663077 19.92340088 0.08062744 C25.98656738 0.09590049 32.04935065 0.13519723 38.11236572 0.17944336 C44.2991416 0.22035972 50.48597939 0.23863072 56.67285156 0.25878906 C68.81234287 0.30168944 80.95154972 0.36996139 93.09082031 0.45410156 C93.74316406 2.28222656 93.74316406 2.28222656 94.09082031 4.45410156 C91.65332031 7.20410156 91.65332031 7.20410156 89.09082031 9.45410156 C89.09082031 8.46410156 89.09082031 7.47410156 89.09082031 6.45410156 C89.75082031 6.45410156 90.41082031 6.45410156 91.09082031 6.45410156 C91.09082031 4.80410156 91.09082031 3.15410156 91.09082031 1.45410156 C78.13857891 1.44580272 65.18683248 1.46957699 52.23473835 1.53437996 C46.22059589 1.56346084 40.20684406 1.58146295 34.19262695 1.57421875 C28.38924291 1.56763489 22.5866314 1.59005779 16.78340721 1.6326561 C14.56865374 1.643804 12.35382207 1.6444724 10.13906288 1.6345253 C7.03789488 1.62238146 3.93909527 1.64738244 0.83813477 1.68115234 C-0.53751144 1.66282097 -0.53751144 1.66282097 -1.94094849 1.64411926 C-6.59026857 1.67375464 -6.59026857 1.67375464 -10.58530617 3.77093124 C-12.34744549 5.83636307 -13.69658775 8.02891768 -14.90917969 10.45410156 C-15.89917969 10.45410156 -16.88917969 10.45410156 -17.90917969 10.45410156 C-17.90917969 9.79410156 -17.90917969 9.13410156 -17.90917969 8.45410156 C-17.24917969 8.45410156 -16.58917969 8.45410156 -15.90917969 8.45410156 C-15.66167969 7.87660156 -15.41417969 7.29910156 -15.15917969 6.70410156 C-11.31382624 -0.21753464 -7.35523181 -0.11149082 0 0 Z " fill="#E1EA48" transform="translate(207.9091796875,72.5458984375)"/>
<path d="M0 0 C4.91120223 -0.12373184 9.82149485 -0.21439824 14.73388672 -0.2746582 C16.40429489 -0.29978078 18.07459337 -0.33388552 19.74462891 -0.37719727 C22.1477362 -0.43795399 24.54938904 -0.46623021 26.953125 -0.48828125 C27.69806213 -0.51408768 28.44299927 -0.5398941 29.21051025 -0.56648254 C31.33300781 -0.56762695 31.33300781 -0.56762695 35 0 C37.50292969 2.53051758 37.50292969 2.53051758 39 5 C37 9 35 13 33 17 C32.34 17 31.68 17 31 17 C32.78888889 11.37777778 32.78888889 11.37777778 34.1875 8.875 C35.35583207 6.69988018 35.35583207 6.69988018 34 3 C22.78 2.67 11.56 2.34 0 2 C0 1.34 0 0.68 0 0 Z " fill="#DEE83C" transform="translate(72,305)"/>
<path d="M0 0 C0.66 0 1.32 0 2 0 C2 4 2 4 -0.3125 6.6875 C-3 9 -3 9 -6 10 C-4.78955868 14.60742865 -4.78955868 14.60742865 -3 19 C13.335 19.495 13.335 19.495 30 20 C30 20.33 30 20.66 30 21 C25.23118124 21.09900135 20.4629627 21.17152928 15.69335938 21.21972656 C14.07150857 21.23982144 12.44973003 21.26710254 10.828125 21.30175781 C8.4946102 21.3503727 6.16205443 21.37298889 3.828125 21.390625 C2.74352997 21.42159271 2.74352997 21.42159271 1.63702393 21.45318604 C-1.80853637 21.45471599 -3.66776925 21.24749546 -6.46582031 19.16308594 C-8.53077802 16.25164016 -8.43766645 14.50133158 -8 11 C-7 8.625 -7 8.625 -6 7 C-5.34 7 -4.68 7 -4 7 C-3.71125 6.401875 -3.4225 5.80375 -3.125 5.1875 C-2 3 -2 3 0 0 Z " fill="#EBF377" transform="translate(13,288)"/>
<path d="M0 0 C0 3.13751221 -0.35179805 4.39757586 -2 7 C-2.99 7.33 -3.98 7.66 -5 8 C-5.28875 8.721875 -5.5775 9.44375 -5.875 10.1875 C-7.33627837 13.84069593 -9.41666641 16.02916637 -12 19 C-12.66 19.99 -13.32 20.98 -14 22 C-15.32 22 -16.64 22 -18 22 C-18 21.34 -18 20.68 -18 20 C-17.34 20 -16.68 20 -16 20 C-16 19.34 -16 18.68 -16 18 C-15.34 18 -14.68 18 -14 18 C-13.34 16.35 -12.68 14.7 -12 13 C-11.34 13 -10.68 13 -10 13 C-9.75507812 12.43796875 -9.51015625 11.8759375 -9.2578125 11.296875 C-7.77073461 8.58134146 -5.95937218 6.53608562 -3.875 4.25 C-3.15054688 3.45078125 -2.42609375 2.6515625 -1.6796875 1.828125 C-1.12539062 1.22484375 -0.57109375 0.6215625 0 0 Z " fill="#E3EE48" transform="translate(78,213)"/>
<path d="M0 0 C1.61724762 3.23449524 0.78587486 5.51969706 0 9 C-3.71886121 16.3594306 -3.71886121 16.3594306 -7 18 C-7.309375 18.61875 -7.61875 19.2375 -7.9375 19.875 C-9.03561938 22.07123876 -10.23930457 23.32086267 -12 25 C-9.55089226 15.85666443 -4.74587908 8.1087871 0 0 Z " fill="#E6F051" transform="translate(94,338)"/>
<path d="M0 0 C0.33 1.32 0.66 2.64 1 4 C0.01 4.33 -0.98 4.66 -2 5 C-2.309375 5.78375 -2.61875 6.5675 -2.9375 7.375 C-4.15165758 10.37468342 -5.2512455 11.36792702 -8 13 C-8.66 13 -9.32 13 -10 13 C-10.4021875 14.1446875 -10.4021875 14.1446875 -10.8125 15.3125 C-11.94424112 17.87380884 -12.91223401 19.19692938 -15 21 C-15.66 20.67 -16.32 20.34 -17 20 C-16.67 19.34 -16.34 18.68 -16 18 C-15.34 18 -14.68 18 -14 18 C-13.731875 17.42765625 -13.46375 16.8553125 -13.1875 16.265625 C-11.95867364 13.92115366 -10.57477824 11.87595062 -9 9.75 C-8.484375 9.04359375 -7.96875 8.3371875 -7.4375 7.609375 C-6.963125 7.07828125 -6.48875 6.5471875 -6 6 C-5.34 6 -4.68 6 -4 6 C-4 5.34 -4 4.68 -4 4 C-3.34 4 -2.68 4 -2 4 C-1.34 2.68 -0.68 1.36 0 0 Z " fill="#E5EF60" transform="translate(159,118)"/>
<path d="M0 0 C0.66 0.33 1.32 0.66 2 1 C1.38125 1.721875 0.7625 2.44375 0.125 3.1875 C-2.29006895 6.38391478 -3.4960266 9.39644826 -4.6875 13.1875 C-6.78542502 16.08463455 -9.63577711 16.25239491 -13 17 C-11.51420205 13.61268862 -9.55889596 11.21488871 -7.0625 8.5 C-4.54946812 5.75680259 -2.18448118 3.01307748 0 0 Z " fill="#E6F052" transform="translate(50,245)"/>
<path d="M0 0 C1.12377697 3.30435084 0.89554742 5.0506862 -0.4375 8.25 C-0.72496094 8.95640625 -1.01242188 9.6628125 -1.30859375 10.390625 C-1.53675781 10.92171875 -1.76492187 11.4528125 -2 12 C-2.66 12 -3.32 12 -4 12 C-4.0825 12.78375 -4.165 13.5675 -4.25 14.375 C-5 17 -5 17 -7.046875 18.1640625 C-8.01367188 18.57785156 -8.01367188 18.57785156 -9 19 C-6.50705133 12.32892506 -3.61659877 6.13636021 0 0 Z " fill="#E4EF51" transform="translate(25,472)"/>
<path d="M0 0 C1.32 0.33 2.64 0.66 4 1 C0.61227103 5.69159716 -2.78185183 10.0299782 -7 14 C-7.33 11.69 -7.66 9.38 -8 7 C-6.35 7 -4.7 7 -3 7 C-3 6.01 -3 5.02 -3 4 C-2.01 4 -1.02 4 0 4 C0 2.68 0 1.36 0 0 Z " fill="#E7F157" transform="translate(272,108)"/>
<path d="M0 0 C0.75 1.6875 0.75 1.6875 1 4 C-0.75 6.5625 -0.75 6.5625 -3 9 C-3.53625 9.598125 -4.0725 10.19625 -4.625 10.8125 C-6 12 -6 12 -8 12 C-8.33 12.99 -8.66 13.98 -9 15 C-9.99 14.67 -10.98 14.34 -12 14 C-11.34 13.01 -10.68 12.02 -10 11 C-9.34 11 -8.68 11 -8 11 C-7.71125 10.401875 -7.4225 9.80375 -7.125 9.1875 C-6 7 -6 7 -4 4 C-3.34 4 -2.68 4 -2 4 C-1.34 2.68 -0.68 1.36 0 0 Z " fill="#E4EE40" transform="translate(117,167)"/>
<path d="M0 0 C0.66 0.33 1.32 0.66 2 1 C1.34 2.32 0.68 3.64 0 5 C-0.66 5 -1.32 5 -2 5 C-2 5.99 -2 6.98 -2 8 C-2.66 8 -3.32 8 -4 8 C-4.08121094 8.60328125 -4.16242188 9.2065625 -4.24609375 9.828125 C-5.23665274 12.68175609 -6.47442011 13.27109721 -9.0625 14.75 C-9.79597656 15.17796875 -10.52945313 15.6059375 -11.28515625 16.046875 C-11.85105469 16.36140625 -12.41695312 16.6759375 -13 17 C-11.15014033 13.06048404 -8.92434659 10.21678125 -6 7 C-5.34 7 -4.68 7 -4 7 C-3.34 5.35 -2.68 3.7 -2 2 C-1.34 2 -0.68 2 0 2 C0 1.34 0 0.68 0 0 Z " fill="#E5EF56" transform="translate(173,101)"/>
<path d="M0 0 C0.33 0.66 0.66 1.32 1 2 C-0.99254248 6.09578176 -3.80974068 8.80974068 -7 12 C-7.70125 13.093125 -8.4025 14.18625 -9.125 15.3125 C-10.053125 16.6428125 -10.053125 16.6428125 -11 18 C-11.99 18 -12.98 18 -14 18 C-14 17.34 -14 16.68 -14 16 C-13.34 16 -12.68 16 -12 16 C-11.773125 15.46375 -11.54625 14.9275 -11.3125 14.375 C-9.54429911 11.17539839 -7.46329797 8.70962777 -5 6 C-4.34 6 -3.68 6 -3 6 C-2.690625 5.195625 -2.38125 4.39125 -2.0625 3.5625 C-1 1 -1 1 0 0 Z " fill="#E3EE4C" transform="translate(104,182)"/>
<path d="M0 0 C0.66 0 1.32 0 2 0 C-1.15266015 7.03285726 -8.36119648 12.37883444 -15 16 C-15 15.34 -15 14.68 -15 14 C-14.34 14 -13.68 14 -13 14 C-12.773125 13.4225 -12.54625 12.845 -12.3125 12.25 C-10.65598007 9.41025155 -8.60531294 7.98500033 -6 6 C-4.9171875 4.88625 -4.9171875 4.88625 -3.8125 3.75 C-2 2 -2 2 0 2 C0 1.34 0 0.68 0 0 Z " fill="#505050" transform="translate(277,149)"/>
<path d="M0 0 C1.32 0 2.64 0 4 0 C2.52651292 3.42527887 0.59092154 5.64955058 -2.0625 8.25 C-2.77535156 8.95640625 -3.48820312 9.6628125 -4.22265625 10.390625 C-6 12 -6 12 -7 12 C-7 10.35 -7 8.7 -7 7 C-6.01 7 -5.02 7 -4 7 C-4 6.01 -4 5.02 -4 4 C-2.68 4 -1.36 4 0 4 C0 2.68 0 1.36 0 0 Z " fill="#E5EF48" transform="translate(115,399)"/>
<path d="M0 0 C0.66 0.33 1.32 0.66 2 1 C-0.77777778 8.36111111 -0.77777778 8.36111111 -5 11 C-6.01801357 11.98165594 -7.0246803 12.97591432 -8 14 C-8.66 13.67 -9.32 13.34 -10 13 C-5.05 6.565 -5.05 6.565 0 0 Z " fill="#E5F04D" transform="translate(188,83)"/>
<path d="M0 0 C0.33 0.99 0.66 1.98 1 3 C-1.14419403 7.0707443 -3.7910725 10.36925522 -7.875 12.5 C-8.57625 12.665 -9.2775 12.83 -10 13 C-8.48446596 9.52224821 -6.4226544 7.0442016 -3.875 4.25 C-3.15054688 3.45078125 -2.42609375 2.6515625 -1.6796875 1.828125 C-0.84824219 0.92320312 -0.84824219 0.92320312 0 0 Z " fill="#E0EC36" transform="translate(89,200)"/>
<path d="M0 0 C0.33 0.99 0.66 1.98 1 3 C-3.29 7.29 -7.58 11.58 -12 16 C-12.66 15.67 -13.32 15.34 -14 15 C-12.38405168 12.95880212 -10.7143618 10.95927063 -9 9 C-8.34 9 -7.68 9 -7 9 C-7 8.34 -7 7.68 -7 7 C-6.34 7 -5.68 7 -5 7 C-4.731875 6.401875 -4.46375 5.80375 -4.1875 5.1875 C-3.01506533 3.02775192 -1.80630718 1.64209744 0 0 Z " fill="#515151" transform="translate(139,410)"/>
<path d="M0 0 C0.33 0.66 0.66 1.32 1 2 C-0.33664205 5.87626194 -3.15708312 8.15708312 -6 11 C-6.33 11.99 -6.66 12.98 -7 14 C-10.0625 15.6875 -10.0625 15.6875 -13 17 C-11.79618552 14.50638429 -10.54571278 12.31856917 -9 10 C-8.34 10 -7.68 10 -7 10 C-6.773125 9.46375 -6.54625 8.9275 -6.3125 8.375 C-4.56617944 5.21499137 -2.3597151 2.7323017 0 0 Z " fill="#E8F069" transform="translate(28,271)"/>
<path d="M0 0 C2.125 0.375 2.125 0.375 4 1 C3.67 1.66 3.34 2.32 3 3 C2.34 3 1.68 3 1 3 C1 3.66 1 4.32 1 5 C0.34 5 -0.32 5 -1 5 C-1 5.66 -1 6.32 -1 7 C-1.66 7 -2.32 7 -3 7 C-3 7.66 -3 8.32 -3 9 C-3.66 9 -4.32 9 -5 9 C-5.33 9.66 -5.66 10.32 -6 11 C-6 9.02 -6 7.04 -6 5 C-5.01 5.33 -4.02 5.66 -3 6 C-2.87625 5.38125 -2.7525 4.7625 -2.625 4.125 C-2 2 -2 2 0 0 Z " fill="#E4EF37" transform="translate(239,267)"/>
<path d="M0 0 C0.85946409 2.42963887 1.09627683 3.6871003 0.328125 6.18359375 C-3.92653456 15.0782987 -3.92653456 15.0782987 -6 18 C-6.66 18 -7.32 18 -8 18 C-6.65150163 13.64029169 -4.95092154 9.68658562 -2.875 5.625 C-2.33617188 4.56539063 -1.79734375 3.50578125 -1.2421875 2.4140625 C-0.83226563 1.61742187 -0.42234375 0.82078125 0 0 Z " fill="#E7EF60" transform="translate(75,374)"/>
<path d="M0 0 C0.33 0 0.66 0 1 0 C1.20943489 5.44530702 1.05730129 8.59981516 -2.5 12.75 C-4 14 -4 14 -6 14 C-4.50829734 9.0276578 -2.39542583 4.58154261 0 0 Z " fill="#E6F052" transform="translate(36,450)"/>
<path d="M0 0 C2 2 2 2 2 5 C0.5390625 6.38671875 0.5390625 6.38671875 -1.375 7.6875 C-2.31472656 8.34298828 -2.31472656 8.34298828 -3.2734375 9.01171875 C-5 10 -5 10 -7 10 C-5.33248852 6.05860922 -2.77289351 3.2107188 0 0 Z " fill="#E2EF3A" transform="translate(59,235)"/>
<path d="M0 0 C0.99 0.66 1.98 1.32 3 2 C1.75482035 3.13033298 0.50363348 4.25405036 -0.75 5.375 C-1.44609375 6.00148438 -2.1421875 6.62796875 -2.859375 7.2734375 C-4.84508688 8.87505183 -6.67954093 9.96520068 -9 11 C-9 10.34 -9 9.68 -9 9 C-8.34 9 -7.68 9 -7 9 C-7 8.34 -7 7.68 -7 7 C-6.34 7 -5.68 7 -5 7 C-4.731875 6.401875 -4.46375 5.80375 -4.1875 5.1875 C-3.01506533 3.02775192 -1.80630718 1.64209744 0 0 Z " fill="#505050" transform="translate(186,360)"/>
<path d="M0 0 C0.33 0.66 0.66 1.32 1 2 C0.34 2 -0.32 2 -1 2 C-1 2.66 -1 3.32 -1 4 C-1.66 4 -2.32 4 -3 4 C-3.268125 4.61875 -3.53625 5.2375 -3.8125 5.875 C-5 8 -5 8 -8 10 C-8 8.35 -8 6.7 -8 5 C-6.68 5 -5.36 5 -4 5 C-4 3.68 -4 2.36 -4 1 C-2.68 0.67 -1.36 0.34 0 0 Z " fill="#E6F14C" transform="translate(167,347)"/>
<path d="M0 0 C1.32 0.33 2.64 0.66 4 1 C2.85793642 2.50287218 1.71125043 4.00223284 0.5625 5.5 C-0.39462891 6.75296875 -0.39462891 6.75296875 -1.37109375 8.03125 C-1.90863281 8.6809375 -2.44617188 9.330625 -3 10 C-3.33 10 -3.66 10 -4 10 C-4.25 7.6875 -4.25 7.6875 -4 5 C-2 3.3125 -2 3.3125 0 2 C0 1.34 0 0.68 0 0 Z " fill="#E4EF47" transform="translate(249,137)"/>
<path d="M0 0 C0.33 0.66 0.66 1.32 1 2 C-0.125 5.0625 -0.125 5.0625 -2 8 C-4.6875 8.875 -4.6875 8.875 -7 9 C-6.34 7.68 -5.68 6.36 -5 5 C-4.34 5 -3.68 5 -3 5 C-2.690625 4.360625 -2.38125 3.72125 -2.0625 3.0625 C-1 1 -1 1 0 0 Z " fill="#E3ED41" transform="translate(125,158)"/>
<path d="M0 0 C0.66 0 1.32 0 2 0 C2 0.66 2 1.32 2 2 C2.99 2.33 3.98 2.66 5 3 C4.01 4.485 4.01 4.485 3 6 C2.34 6 1.68 6 1 6 C1 6.66 1 7.32 1 8 C0.01 8.33 -0.98 8.66 -2 9 C-2 8.01 -2 7.02 -2 6 C-2.66 6 -3.32 6 -4 6 C-3.67 5.34 -3.34 4.68 -3 4 C-1.35 4.33 0.3 4.66 2 5 C1.34 3.35 0.68 1.7 0 0 Z " fill="#E4EF39" transform="translate(44,472)"/>
<path d="M0 0 C1.0169313 2.65498232 1.13022151 3.69155375 0.00390625 6.359375 C-0.47175781 7.14828125 -0.94742188 7.9371875 -1.4375 8.75 C-1.91058594 9.54921875 -2.38367187 10.3484375 -2.87109375 11.171875 C-3.24363281 11.77515625 -3.61617187 12.3784375 -4 13 C-4.66 13 -5.32 13 -6 13 C-4.58707905 8.1725201 -2.57025846 4.2837641 0 0 Z " fill="#E9EF6A" transform="translate(43,437)"/>
<path d="M0 0 C1.0470501 2.72233025 0.96834915 4.15508914 0.375 7.0625 C-1.2295793 10.49046486 -2.6338694 11.40551709 -6 13 C-4.58707905 8.1725201 -2.57025846 4.2837641 0 0 Z " fill="#E9F265" transform="translate(66,392)"/>
<path d="M0 0 C0.66 0.99 1.32 1.98 2 3 C1.34 3 0.68 3 0 3 C0.061875 4.1446875 0.061875 4.1446875 0.125 5.3125 C0 8 0 8 -2 11 C-2.99 10.67 -3.98 10.34 -5 10 C-3.35 6.7 -1.7 3.4 0 0 Z " fill="#E5EE4E" transform="translate(81,363)"/>
<path d="M0 0 C0 3.13751221 -0.35179805 4.39757586 -2 7 C-2.99 7.33 -3.98 7.66 -5 8 C-5 8.66 -5 9.32 -5 10 C-5.99 9.67 -6.98 9.34 -8 9 C-5.36 6.03 -2.72 3.06 0 0 Z " fill="#E7F05E" transform="translate(78,213)"/>
<path d="M0 0 C1.32 0.33 2.64 0.66 4 1 C2.85760183 2.33627775 1.71098945 3.66895388 0.5625 5 C-0.07558594 5.7425 -0.71367187 6.485 -1.37109375 7.25 C-2.17740234 8.11625 -2.17740234 8.11625 -3 9 C-3.33 9 -3.66 9 -4 9 C-4 7.35 -4 5.7 -4 4 C-3.01 3.67 -2.02 3.34 -1 3 C-0.67 2.01 -0.34 1.02 0 0 Z " fill="#E6EF46" transform="translate(181,329)"/>
<path d="M0 0 C1.32 0 2.64 0 4 0 C2.50902342 3.7952131 0.24299151 5.61042731 -3 8 C-3.33 6.68 -3.66 5.36 -4 4 C-2.68 4 -1.36 4 0 4 C0 2.68 0 1.36 0 0 Z " fill="#EAF160" transform="translate(192,317)"/>
<path d="M0 0 C0.66 0 1.32 0 2 0 C2 0.66 2 1.32 2 2 C2.99 2.33 3.98 2.66 5 3 C3.625 5 3.625 5 2 7 C1.34 7 0.68 7 0 7 C0 7.66 0 8.32 0 9 C-0.66 8.67 -1.32 8.34 -2 8 C-1.67 7.4225 -1.34 6.845 -1 6.25 C0.27075898 3.80116138 0.27075898 3.80116138 0 0 Z " fill="#E5F141" transform="translate(76,438)"/>
<path d="M0 0 C2 3 2 3 1.875 6.5 C1 10 1 10 -1.0625 11.9375 C-1.701875 12.288125 -2.34125 12.63875 -3 13 C-3 11.68 -3 10.36 -3 9 C-2.01 9 -1.02 9 0 9 C0 6.03 0 3.06 0 0 Z " fill="#E4F058" transform="translate(248,252)"/>
<path d="M0 0 C1.65 0 3.3 0 5 0 C1.38671875 4.6875 1.38671875 4.6875 0 6 C-0.99 6 -1.98 6 -3 6 C-3 5.01 -3 4.02 -3 3 C-2.01 2.67 -1.02 2.34 0 2 C0 1.34 0 0.68 0 0 Z " fill="#E8F142" transform="translate(19,501)"/>
<path d="M0 0 C0.33 0.66 0.66 1.32 1 2 C-0.4726862 5.27263601 -1.42695432 6.72014048 -4.6875 8.3125 C-5.450625 8.539375 -6.21375 8.76625 -7 9 C-6.02180976 7.68677212 -5.0424189 6.37443848 -4.0625 5.0625 C-3.51722656 4.33160156 -2.97195312 3.60070312 -2.41015625 2.84765625 C-1 1 -1 1 0 0 Z " fill="#E6F052" transform="translate(36,262)"/>
<path d="M0 0 C0.66 0.33 1.32 0.66 2 1 C1.01 2.485 1.01 2.485 0 4 C-0.66 4 -1.32 4 -2 4 C-2.66 5.32 -3.32 6.64 -4 8 C-4.33 8 -4.66 8 -5 8 C-5 6.35 -5 4.7 -5 3 C-4.34 3 -3.68 3 -3 3 C-3 2.34 -3 1.68 -3 1 C-2.01 0.67 -1.02 0.34 0 0 Z " fill="#E6F14C" transform="translate(196,206)"/>
<path d="M0 0 C1.32 0.33 2.64 0.66 4 1 C3.02433888 2.16959987 2.044375 3.33561177 1.0625 4.5 C0.51722656 5.1496875 -0.02804688 5.799375 -0.58984375 6.46875 C-1.05519531 6.9740625 -1.52054688 7.479375 -2 8 C-2.33 8 -2.66 8 -3 8 C-3 6.35 -3 4.7 -3 3 C-2.01 3 -1.02 3 0 3 C0 2.01 0 1.02 0 0 Z " fill="#E6F04F" transform="translate(231,160)"/>
<path d="M0 0 C1.65 0 3.3 0 5 0 C4.43628586 3.26954202 3.50037734 4.82575883 1 7 C0.67 4.69 0.34 2.38 0 0 Z " fill="#E3F130" transform="translate(264,115)"/>
<path d="M0 0 C0.33 0.99 0.66 1.98 1 3 C-1.31 4.98 -3.62 6.96 -6 9 C-6.33 8.34 -6.66 7.68 -7 7 C-6.34 7 -5.68 7 -5 7 C-4.731875 6.401875 -4.46375 5.80375 -4.1875 5.1875 C-3.01506533 3.02775192 -1.80630718 1.64209744 0 0 Z " fill="#656565" transform="translate(92,460)"/>
<path d="M0 0 C0.66 0.33 1.32 0.66 2 1 C1.21654285 2.17219543 0.42297164 3.33763668 -0.375 4.5 C-0.81585938 5.1496875 -1.25671875 5.799375 -1.7109375 6.46875 C-2.13632813 6.9740625 -2.56171875 7.479375 -3 8 C-3.66 8 -4.32 8 -5 8 C-5 7.01 -5 6.02 -5 5 C-4.34 5 -3.68 5 -3 5 C-3 3.68 -3 2.36 -3 1 C-2.01 0.67 -1.02 0.34 0 0 Z " fill="#E8F05C" transform="translate(188,216)"/>
<path d="M0 0 C0.33 0.99 0.66 1.98 1 3 C0.67 3.66 0.34 4.32 0 5 C-0.66 5 -1.32 5 -2 5 C-2.33 5.99 -2.66 6.98 -3 8 C-3.99 7.67 -4.98 7.34 -6 7 C-5.34 6.01 -4.68 5.02 -4 4 C-3.34 4 -2.68 4 -2 4 C-1.34 2.68 -0.68 1.36 0 0 Z " fill="#E6EF5D" transform="translate(111,174)"/>
<path d="M0 0 C0.33 0.66 0.66 1.32 1 2 C-0.4726862 5.27263601 -1.42695432 6.72014048 -4.6875 8.3125 C-5.450625 8.539375 -6.21375 8.76625 -7 9 C-6.34 8.01 -5.68 7.02 -5 6 C-4.34 6 -3.68 6 -3 6 C-2.690625 5.195625 -2.38125 4.39125 -2.0625 3.5625 C-1 1 -1 1 0 0 Z " fill="#E6EF64" transform="translate(104,182)"/>
<path d="M0 0 C0.33 0.66 0.66 1.32 1 2 C-0.98 4.31 -2.96 6.62 -5 9 C-5.66 8.67 -6.32 8.34 -7 8 C-4.69 5.36 -2.38 2.72 0 0 Z " fill="#6E6E6E" transform="translate(269,271)"/>
<path d="M0 0 C0.66 1.32 1.32 2.64 2 4 C0.35 5.65 -1.3 7.3 -3 9 C-3 8.01 -3 7.02 -3 6 C-2.34 6 -1.68 6 -1 6 C-1.0309375 4.7934375 -1.0309375 4.7934375 -1.0625 3.5625 C-1 1 -1 1 0 0 Z " fill="#EAF072" transform="translate(300,73)"/>
<path d="M0 0 C0.33 0.99 0.66 1.98 1 3 C-1.3125 6.1875 -1.3125 6.1875 -4 9 C-4.66 9 -5.32 9 -6 9 C-4.47291037 5.56404834 -2.40072955 2.88087546 0 0 Z " fill="#E9EF6A" transform="translate(85,204)"/>
</svg>
